<mxfile host="app.diagrams.net" modified="2023-12-17T22:12:29.642Z" agent="Mozilla/5.0 (Windows NT 10.0; Win64; x64) AppleWebKit/537.36 (KHTML, like Gecko) Chrome/120.0.0.0 Safari/537.36" etag="wRzasGDgFx4eGHXu1uZT" version="21.7.3" type="device">
  <diagram name="PÃ¡gina-1" id="BXOcKi-Mnua7rJVAQddl">
    <mxGraphModel dx="2357" dy="2236" grid="1" gridSize="10" guides="1" tooltips="1" connect="1" arrows="1" fold="1" page="1" pageScale="1" pageWidth="827" pageHeight="1169" math="0" shadow="0">
      <root>
        <mxCell id="0" />
        <mxCell id="1" parent="0" />
        <mxCell id="cKec8RYuwjk50nraUcjY-4" value="P" style="edgeStyle=orthogonalEdgeStyle;rounded=0;orthogonalLoop=1;jettySize=auto;html=1;" edge="1" parent="1" source="cKec8RYuwjk50nraUcjY-1" target="cKec8RYuwjk50nraUcjY-3">
          <mxGeometry relative="1" as="geometry" />
        </mxCell>
        <mxCell id="cKec8RYuwjk50nraUcjY-27" value="V" style="edgeStyle=orthogonalEdgeStyle;rounded=0;orthogonalLoop=1;jettySize=auto;html=1;exitX=1;exitY=1;exitDx=0;exitDy=0;entryX=0;entryY=0.5;entryDx=0;entryDy=0;" edge="1" parent="1" source="cKec8RYuwjk50nraUcjY-1" target="cKec8RYuwjk50nraUcjY-26">
          <mxGeometry relative="1" as="geometry" />
        </mxCell>
        <mxCell id="cKec8RYuwjk50nraUcjY-41" value="I" style="edgeStyle=orthogonalEdgeStyle;rounded=0;orthogonalLoop=1;jettySize=auto;html=1;exitX=0.5;exitY=1;exitDx=0;exitDy=0;" edge="1" parent="1" source="cKec8RYuwjk50nraUcjY-1" target="cKec8RYuwjk50nraUcjY-40">
          <mxGeometry x="0.7419" relative="1" as="geometry">
            <Array as="points">
              <mxPoint x="390" y="830" />
            </Array>
            <mxPoint as="offset" />
          </mxGeometry>
        </mxCell>
        <mxCell id="cKec8RYuwjk50nraUcjY-57" value="F" style="edgeStyle=orthogonalEdgeStyle;rounded=0;orthogonalLoop=1;jettySize=auto;html=1;exitX=0.5;exitY=1;exitDx=0;exitDy=0;" edge="1" parent="1" source="cKec8RYuwjk50nraUcjY-1" target="cKec8RYuwjk50nraUcjY-56">
          <mxGeometry x="0.8644" relative="1" as="geometry">
            <Array as="points">
              <mxPoint x="380" y="610" />
              <mxPoint x="380" y="1090" />
            </Array>
            <mxPoint as="offset" />
          </mxGeometry>
        </mxCell>
        <mxCell id="cKec8RYuwjk50nraUcjY-68" value="B" style="edgeStyle=orthogonalEdgeStyle;rounded=0;orthogonalLoop=1;jettySize=auto;html=1;exitX=0.5;exitY=1;exitDx=0;exitDy=0;" edge="1" parent="1" source="cKec8RYuwjk50nraUcjY-1" target="cKec8RYuwjk50nraUcjY-67">
          <mxGeometry x="0.8919" relative="1" as="geometry">
            <Array as="points">
              <mxPoint x="370" y="610" />
              <mxPoint x="370" y="1220" />
            </Array>
            <mxPoint as="offset" />
          </mxGeometry>
        </mxCell>
        <mxCell id="cKec8RYuwjk50nraUcjY-103" value="E" style="edgeStyle=orthogonalEdgeStyle;rounded=0;orthogonalLoop=1;jettySize=auto;html=1;exitX=0.5;exitY=1;exitDx=0;exitDy=0;" edge="1" parent="1" source="cKec8RYuwjk50nraUcjY-1" target="cKec8RYuwjk50nraUcjY-102">
          <mxGeometry x="0.9216" relative="1" as="geometry">
            <Array as="points">
              <mxPoint x="360" y="610" />
              <mxPoint x="360" y="1480" />
            </Array>
            <mxPoint as="offset" />
          </mxGeometry>
        </mxCell>
        <mxCell id="cKec8RYuwjk50nraUcjY-115" value="T" style="edgeStyle=orthogonalEdgeStyle;rounded=0;orthogonalLoop=1;jettySize=auto;html=1;exitX=0.5;exitY=1;exitDx=0;exitDy=0;" edge="1" parent="1" source="cKec8RYuwjk50nraUcjY-1" target="cKec8RYuwjk50nraUcjY-114">
          <mxGeometry x="0.9385" relative="1" as="geometry">
            <Array as="points">
              <mxPoint x="350" y="610" />
              <mxPoint x="350" y="1740" />
            </Array>
            <mxPoint as="offset" />
          </mxGeometry>
        </mxCell>
        <mxCell id="cKec8RYuwjk50nraUcjY-123" value="W" style="edgeStyle=orthogonalEdgeStyle;rounded=0;orthogonalLoop=1;jettySize=auto;html=1;exitX=0.5;exitY=1;exitDx=0;exitDy=0;" edge="1" parent="1" source="cKec8RYuwjk50nraUcjY-1" target="cKec8RYuwjk50nraUcjY-122">
          <mxGeometry x="0.9448" relative="1" as="geometry">
            <Array as="points">
              <mxPoint x="340" y="610" />
              <mxPoint x="340" y="1870" />
            </Array>
            <mxPoint as="offset" />
          </mxGeometry>
        </mxCell>
        <mxCell id="cKec8RYuwjk50nraUcjY-133" value="D" style="edgeStyle=orthogonalEdgeStyle;rounded=0;orthogonalLoop=1;jettySize=auto;html=1;exitX=0.5;exitY=1;exitDx=0;exitDy=0;entryX=0;entryY=0.5;entryDx=0;entryDy=0;" edge="1" parent="1" source="cKec8RYuwjk50nraUcjY-1" target="cKec8RYuwjk50nraUcjY-132">
          <mxGeometry x="0.95" relative="1" as="geometry">
            <Array as="points">
              <mxPoint x="330" y="610" />
              <mxPoint x="330" y="2000" />
            </Array>
            <mxPoint as="offset" />
          </mxGeometry>
        </mxCell>
        <mxCell id="cKec8RYuwjk50nraUcjY-137" value="N" style="edgeStyle=orthogonalEdgeStyle;rounded=0;orthogonalLoop=1;jettySize=auto;html=1;exitX=0.5;exitY=1;exitDx=0;exitDy=0;entryX=0;entryY=0.5;entryDx=0;entryDy=0;" edge="1" parent="1" source="cKec8RYuwjk50nraUcjY-1" target="cKec8RYuwjk50nraUcjY-136">
          <mxGeometry x="0.9543" relative="1" as="geometry">
            <Array as="points">
              <mxPoint x="320" y="610" />
              <mxPoint x="320" y="2130" />
            </Array>
            <mxPoint as="offset" />
          </mxGeometry>
        </mxCell>
        <mxCell id="cKec8RYuwjk50nraUcjY-148" value="[a..z]" style="edgeStyle=orthogonalEdgeStyle;rounded=0;orthogonalLoop=1;jettySize=auto;html=1;exitX=0;exitY=0.5;exitDx=0;exitDy=0;" edge="1" parent="1" source="cKec8RYuwjk50nraUcjY-1" target="cKec8RYuwjk50nraUcjY-147">
          <mxGeometry relative="1" as="geometry" />
        </mxCell>
        <mxCell id="cKec8RYuwjk50nraUcjY-1" value="Q1" style="ellipse;whiteSpace=wrap;html=1;aspect=fixed;" vertex="1" parent="1">
          <mxGeometry x="350" y="530" width="80" height="80" as="geometry" />
        </mxCell>
        <mxCell id="cKec8RYuwjk50nraUcjY-2" value="&quot; &quot;" style="endArrow=classic;html=1;rounded=0;exitX=1;exitY=0;exitDx=0;exitDy=0;entryX=0.5;entryY=0;entryDx=0;entryDy=0;" edge="1" parent="1" source="cKec8RYuwjk50nraUcjY-1" target="cKec8RYuwjk50nraUcjY-1">
          <mxGeometry x="0.2138" y="-10" width="50" height="50" relative="1" as="geometry">
            <mxPoint x="340" y="600" as="sourcePoint" />
            <mxPoint x="390" y="550" as="targetPoint" />
            <Array as="points">
              <mxPoint x="420" y="500" />
              <mxPoint x="390" y="500" />
            </Array>
            <mxPoint as="offset" />
          </mxGeometry>
        </mxCell>
        <mxCell id="cKec8RYuwjk50nraUcjY-6" value="R" style="edgeStyle=orthogonalEdgeStyle;rounded=0;orthogonalLoop=1;jettySize=auto;html=1;" edge="1" parent="1" source="cKec8RYuwjk50nraUcjY-3" target="cKec8RYuwjk50nraUcjY-5">
          <mxGeometry relative="1" as="geometry" />
        </mxCell>
        <mxCell id="cKec8RYuwjk50nraUcjY-3" value="Q2" style="ellipse;whiteSpace=wrap;html=1;aspect=fixed;" vertex="1" parent="1">
          <mxGeometry x="480" y="530" width="80" height="80" as="geometry" />
        </mxCell>
        <mxCell id="cKec8RYuwjk50nraUcjY-8" value="O" style="edgeStyle=orthogonalEdgeStyle;rounded=0;orthogonalLoop=1;jettySize=auto;html=1;" edge="1" parent="1" source="cKec8RYuwjk50nraUcjY-5" target="cKec8RYuwjk50nraUcjY-7">
          <mxGeometry relative="1" as="geometry" />
        </mxCell>
        <mxCell id="cKec8RYuwjk50nraUcjY-5" value="Q3" style="ellipse;whiteSpace=wrap;html=1;aspect=fixed;" vertex="1" parent="1">
          <mxGeometry x="610" y="530" width="80" height="80" as="geometry" />
        </mxCell>
        <mxCell id="cKec8RYuwjk50nraUcjY-10" value="G" style="edgeStyle=orthogonalEdgeStyle;rounded=0;orthogonalLoop=1;jettySize=auto;html=1;" edge="1" parent="1" source="cKec8RYuwjk50nraUcjY-7" target="cKec8RYuwjk50nraUcjY-9">
          <mxGeometry relative="1" as="geometry" />
        </mxCell>
        <mxCell id="cKec8RYuwjk50nraUcjY-83" value="C" style="edgeStyle=orthogonalEdgeStyle;rounded=0;orthogonalLoop=1;jettySize=auto;html=1;" edge="1" parent="1" source="cKec8RYuwjk50nraUcjY-7" target="cKec8RYuwjk50nraUcjY-82">
          <mxGeometry relative="1" as="geometry" />
        </mxCell>
        <mxCell id="cKec8RYuwjk50nraUcjY-7" value="Q4" style="ellipse;whiteSpace=wrap;html=1;aspect=fixed;" vertex="1" parent="1">
          <mxGeometry x="740" y="530" width="80" height="80" as="geometry" />
        </mxCell>
        <mxCell id="cKec8RYuwjk50nraUcjY-12" value="R" style="edgeStyle=orthogonalEdgeStyle;rounded=0;orthogonalLoop=1;jettySize=auto;html=1;" edge="1" parent="1" source="cKec8RYuwjk50nraUcjY-9" target="cKec8RYuwjk50nraUcjY-11">
          <mxGeometry relative="1" as="geometry" />
        </mxCell>
        <mxCell id="cKec8RYuwjk50nraUcjY-9" value="Q5" style="ellipse;whiteSpace=wrap;html=1;aspect=fixed;" vertex="1" parent="1">
          <mxGeometry x="870" y="530" width="80" height="80" as="geometry" />
        </mxCell>
        <mxCell id="cKec8RYuwjk50nraUcjY-14" value="" style="edgeStyle=orthogonalEdgeStyle;rounded=0;orthogonalLoop=1;jettySize=auto;html=1;" edge="1" parent="1" source="cKec8RYuwjk50nraUcjY-11" target="cKec8RYuwjk50nraUcjY-13">
          <mxGeometry relative="1" as="geometry" />
        </mxCell>
        <mxCell id="cKec8RYuwjk50nraUcjY-15" value="A" style="edgeStyle=orthogonalEdgeStyle;rounded=0;orthogonalLoop=1;jettySize=auto;html=1;" edge="1" parent="1" source="cKec8RYuwjk50nraUcjY-11" target="cKec8RYuwjk50nraUcjY-13">
          <mxGeometry relative="1" as="geometry" />
        </mxCell>
        <mxCell id="cKec8RYuwjk50nraUcjY-11" value="Q6" style="ellipse;whiteSpace=wrap;html=1;aspect=fixed;" vertex="1" parent="1">
          <mxGeometry x="1000" y="530" width="80" height="80" as="geometry" />
        </mxCell>
        <mxCell id="cKec8RYuwjk50nraUcjY-20" value="M" style="edgeStyle=orthogonalEdgeStyle;rounded=0;orthogonalLoop=1;jettySize=auto;html=1;" edge="1" parent="1" source="cKec8RYuwjk50nraUcjY-13" target="cKec8RYuwjk50nraUcjY-16">
          <mxGeometry relative="1" as="geometry">
            <mxPoint x="1255" y="570" as="targetPoint" />
          </mxGeometry>
        </mxCell>
        <mxCell id="cKec8RYuwjk50nraUcjY-13" value="Q7" style="ellipse;whiteSpace=wrap;html=1;aspect=fixed;" vertex="1" parent="1">
          <mxGeometry x="1130" y="530" width="80" height="80" as="geometry" />
        </mxCell>
        <mxCell id="cKec8RYuwjk50nraUcjY-21" value="&#xa;&lt;span style=&quot;color: rgb(32, 33, 34); font-family: &amp;quot;Athena Unicode&amp;quot;, Gentium, &amp;quot;Palatino Linotype&amp;quot;, &amp;quot;Arial Unicode MS&amp;quot;, &amp;quot;Lucida Sans Unicode&amp;quot;, &amp;quot;Lucida Grande&amp;quot;, Code2000; font-size: 14px; font-style: normal; font-variant-ligatures: normal; font-variant-caps: normal; font-weight: 400; letter-spacing: normal; orphans: 2; text-align: start; text-indent: 0px; text-transform: none; widows: 2; word-spacing: 0px; -webkit-text-stroke-width: 0px; background-color: rgb(255, 255, 255); text-decoration-thickness: initial; text-decoration-style: initial; text-decoration-color: initial; float: none; display: inline !important;&quot;&gt;Î±&lt;/span&gt;&#xa;&#xa;" style="endArrow=classic;html=1;rounded=0;exitX=1;exitY=0;exitDx=0;exitDy=0;" edge="1" parent="1" source="cKec8RYuwjk50nraUcjY-16" target="cKec8RYuwjk50nraUcjY-24">
          <mxGeometry width="50" height="50" relative="1" as="geometry">
            <mxPoint x="1331.8198051533946" y="538.1801948466054" as="sourcePoint" />
            <mxPoint x="1395" y="480" as="targetPoint" />
          </mxGeometry>
        </mxCell>
        <mxCell id="cKec8RYuwjk50nraUcjY-24" value="V" style="text;html=1;align=center;verticalAlign=middle;resizable=0;points=[];autosize=1;strokeColor=none;fillColor=none;" vertex="1" parent="1">
          <mxGeometry x="1410" y="520" width="30" height="30" as="geometry" />
        </mxCell>
        <mxCell id="cKec8RYuwjk50nraUcjY-29" value="A" style="edgeStyle=orthogonalEdgeStyle;rounded=0;orthogonalLoop=1;jettySize=auto;html=1;" edge="1" parent="1" source="cKec8RYuwjk50nraUcjY-26" target="cKec8RYuwjk50nraUcjY-28">
          <mxGeometry relative="1" as="geometry" />
        </mxCell>
        <mxCell id="cKec8RYuwjk50nraUcjY-26" value="Q9" style="ellipse;whiteSpace=wrap;html=1;aspect=fixed;" vertex="1" parent="1">
          <mxGeometry x="480" y="660" width="80" height="80" as="geometry" />
        </mxCell>
        <mxCell id="cKec8RYuwjk50nraUcjY-31" value="R" style="edgeStyle=orthogonalEdgeStyle;rounded=0;orthogonalLoop=1;jettySize=auto;html=1;" edge="1" parent="1" source="cKec8RYuwjk50nraUcjY-28" target="cKec8RYuwjk50nraUcjY-30">
          <mxGeometry relative="1" as="geometry" />
        </mxCell>
        <mxCell id="cKec8RYuwjk50nraUcjY-28" value="Q10" style="ellipse;whiteSpace=wrap;html=1;aspect=fixed;" vertex="1" parent="1">
          <mxGeometry x="610" y="660" width="80" height="80" as="geometry" />
        </mxCell>
        <mxCell id="cKec8RYuwjk50nraUcjY-30" value="Q11" style="ellipse;whiteSpace=wrap;html=1;aspect=fixed;strokeWidth=4;" vertex="1" parent="1">
          <mxGeometry x="740" y="660" width="80" height="80" as="geometry" />
        </mxCell>
        <mxCell id="cKec8RYuwjk50nraUcjY-32" value="" style="endArrow=classic;html=1;rounded=0;exitX=1;exitY=0;exitDx=0;exitDy=0;" edge="1" parent="1" source="cKec8RYuwjk50nraUcjY-26" target="cKec8RYuwjk50nraUcjY-33">
          <mxGeometry width="50" height="50" relative="1" as="geometry">
            <mxPoint x="540" y="670" as="sourcePoint" />
            <mxPoint x="590" y="630" as="targetPoint" />
          </mxGeometry>
        </mxCell>
        <mxCell id="cKec8RYuwjk50nraUcjY-33" value="Î±" style="text;html=1;align=center;verticalAlign=middle;resizable=0;points=[];autosize=1;strokeColor=none;fillColor=none;" vertex="1" parent="1">
          <mxGeometry x="580" y="610" width="30" height="30" as="geometry" />
        </mxCell>
        <mxCell id="cKec8RYuwjk50nraUcjY-34" value="" style="endArrow=classic;html=1;rounded=0;exitX=1;exitY=0;exitDx=0;exitDy=0;" edge="1" parent="1" target="cKec8RYuwjk50nraUcjY-35" source="cKec8RYuwjk50nraUcjY-28">
          <mxGeometry width="50" height="50" relative="1" as="geometry">
            <mxPoint x="678" y="662" as="sourcePoint" />
            <mxPoint x="720" y="620" as="targetPoint" />
          </mxGeometry>
        </mxCell>
        <mxCell id="cKec8RYuwjk50nraUcjY-35" value="Î±" style="text;html=1;align=center;verticalAlign=middle;resizable=0;points=[];autosize=1;strokeColor=none;fillColor=none;" vertex="1" parent="1">
          <mxGeometry x="710" y="610" width="30" height="30" as="geometry" />
        </mxCell>
        <mxCell id="cKec8RYuwjk50nraUcjY-38" value="" style="endArrow=classic;html=1;rounded=0;exitX=1;exitY=0;exitDx=0;exitDy=0;" edge="1" parent="1" target="cKec8RYuwjk50nraUcjY-39" source="cKec8RYuwjk50nraUcjY-30">
          <mxGeometry width="50" height="50" relative="1" as="geometry">
            <mxPoint x="808" y="672" as="sourcePoint" />
            <mxPoint x="850" y="630" as="targetPoint" />
          </mxGeometry>
        </mxCell>
        <mxCell id="cKec8RYuwjk50nraUcjY-39" value="Î±" style="text;html=1;align=center;verticalAlign=middle;resizable=0;points=[];autosize=1;strokeColor=none;fillColor=none;" vertex="1" parent="1">
          <mxGeometry x="840" y="610" width="30" height="30" as="geometry" />
        </mxCell>
        <mxCell id="cKec8RYuwjk50nraUcjY-16" value="Q8" style="ellipse;whiteSpace=wrap;html=1;aspect=fixed;gradientColor=none;shadow=0;strokeWidth=4;" vertex="1" parent="1">
          <mxGeometry x="1260" y="530" width="80" height="80" as="geometry" />
        </mxCell>
        <mxCell id="cKec8RYuwjk50nraUcjY-43" value="N" style="edgeStyle=orthogonalEdgeStyle;rounded=0;orthogonalLoop=1;jettySize=auto;html=1;" edge="1" parent="1" source="cKec8RYuwjk50nraUcjY-40" target="cKec8RYuwjk50nraUcjY-42">
          <mxGeometry relative="1" as="geometry" />
        </mxCell>
        <mxCell id="cKec8RYuwjk50nraUcjY-55" value="F" style="edgeStyle=orthogonalEdgeStyle;rounded=0;orthogonalLoop=1;jettySize=auto;html=1;" edge="1" parent="1" source="cKec8RYuwjk50nraUcjY-40" target="cKec8RYuwjk50nraUcjY-54">
          <mxGeometry relative="1" as="geometry" />
        </mxCell>
        <mxCell id="cKec8RYuwjk50nraUcjY-40" value="Q12" style="ellipse;whiteSpace=wrap;html=1;aspect=fixed;" vertex="1" parent="1">
          <mxGeometry x="480" y="790" width="80" height="80" as="geometry" />
        </mxCell>
        <mxCell id="cKec8RYuwjk50nraUcjY-45" value="T" style="edgeStyle=orthogonalEdgeStyle;rounded=0;orthogonalLoop=1;jettySize=auto;html=1;" edge="1" parent="1" source="cKec8RYuwjk50nraUcjY-42" target="cKec8RYuwjk50nraUcjY-44">
          <mxGeometry relative="1" as="geometry" />
        </mxCell>
        <mxCell id="cKec8RYuwjk50nraUcjY-42" value="Q13" style="ellipse;whiteSpace=wrap;html=1;aspect=fixed;" vertex="1" parent="1">
          <mxGeometry x="610" y="790" width="80" height="80" as="geometry" />
        </mxCell>
        <mxCell id="cKec8RYuwjk50nraUcjY-47" value="E" style="edgeStyle=orthogonalEdgeStyle;rounded=0;orthogonalLoop=1;jettySize=auto;html=1;" edge="1" parent="1" source="cKec8RYuwjk50nraUcjY-44" target="cKec8RYuwjk50nraUcjY-46">
          <mxGeometry relative="1" as="geometry" />
        </mxCell>
        <mxCell id="cKec8RYuwjk50nraUcjY-44" value="Q14" style="ellipse;whiteSpace=wrap;html=1;aspect=fixed;" vertex="1" parent="1">
          <mxGeometry x="740" y="790" width="80" height="80" as="geometry" />
        </mxCell>
        <mxCell id="cKec8RYuwjk50nraUcjY-49" value="G" style="edgeStyle=orthogonalEdgeStyle;rounded=0;orthogonalLoop=1;jettySize=auto;html=1;" edge="1" parent="1" source="cKec8RYuwjk50nraUcjY-46" target="cKec8RYuwjk50nraUcjY-48">
          <mxGeometry relative="1" as="geometry" />
        </mxCell>
        <mxCell id="cKec8RYuwjk50nraUcjY-46" value="Q15" style="ellipse;whiteSpace=wrap;html=1;aspect=fixed;" vertex="1" parent="1">
          <mxGeometry x="870" y="790" width="80" height="80" as="geometry" />
        </mxCell>
        <mxCell id="cKec8RYuwjk50nraUcjY-51" value="E" style="edgeStyle=orthogonalEdgeStyle;rounded=0;orthogonalLoop=1;jettySize=auto;html=1;" edge="1" parent="1" source="cKec8RYuwjk50nraUcjY-48" target="cKec8RYuwjk50nraUcjY-50">
          <mxGeometry relative="1" as="geometry" />
        </mxCell>
        <mxCell id="cKec8RYuwjk50nraUcjY-48" value="Q16" style="ellipse;whiteSpace=wrap;html=1;aspect=fixed;" vertex="1" parent="1">
          <mxGeometry x="1000" y="790" width="80" height="80" as="geometry" />
        </mxCell>
        <mxCell id="cKec8RYuwjk50nraUcjY-53" value="R" style="edgeStyle=orthogonalEdgeStyle;rounded=0;orthogonalLoop=1;jettySize=auto;html=1;" edge="1" parent="1" source="cKec8RYuwjk50nraUcjY-50" target="cKec8RYuwjk50nraUcjY-52">
          <mxGeometry relative="1" as="geometry" />
        </mxCell>
        <mxCell id="cKec8RYuwjk50nraUcjY-50" value="Q17" style="ellipse;whiteSpace=wrap;html=1;aspect=fixed;" vertex="1" parent="1">
          <mxGeometry x="1130" y="790" width="80" height="80" as="geometry" />
        </mxCell>
        <mxCell id="cKec8RYuwjk50nraUcjY-52" value="Q18" style="ellipse;whiteSpace=wrap;html=1;aspect=fixed;strokeWidth=4;" vertex="1" parent="1">
          <mxGeometry x="1260" y="790" width="80" height="80" as="geometry" />
        </mxCell>
        <mxCell id="cKec8RYuwjk50nraUcjY-54" value="Q19" style="ellipse;whiteSpace=wrap;html=1;aspect=fixed;strokeWidth=4;" vertex="1" parent="1">
          <mxGeometry x="480" y="920" width="80" height="80" as="geometry" />
        </mxCell>
        <mxCell id="cKec8RYuwjk50nraUcjY-59" value="L" style="edgeStyle=orthogonalEdgeStyle;rounded=0;orthogonalLoop=1;jettySize=auto;html=1;" edge="1" parent="1" source="cKec8RYuwjk50nraUcjY-56" target="cKec8RYuwjk50nraUcjY-58">
          <mxGeometry relative="1" as="geometry" />
        </mxCell>
        <mxCell id="cKec8RYuwjk50nraUcjY-56" value="Q20" style="ellipse;whiteSpace=wrap;html=1;aspect=fixed;" vertex="1" parent="1">
          <mxGeometry x="480" y="1050" width="80" height="80" as="geometry" />
        </mxCell>
        <mxCell id="cKec8RYuwjk50nraUcjY-62" value="O" style="edgeStyle=orthogonalEdgeStyle;rounded=0;orthogonalLoop=1;jettySize=auto;html=1;" edge="1" parent="1" source="cKec8RYuwjk50nraUcjY-58" target="cKec8RYuwjk50nraUcjY-60">
          <mxGeometry relative="1" as="geometry" />
        </mxCell>
        <mxCell id="cKec8RYuwjk50nraUcjY-58" value="Q21" style="ellipse;whiteSpace=wrap;html=1;aspect=fixed;" vertex="1" parent="1">
          <mxGeometry x="610" y="1050" width="80" height="80" as="geometry" />
        </mxCell>
        <mxCell id="cKec8RYuwjk50nraUcjY-64" value="A" style="edgeStyle=orthogonalEdgeStyle;rounded=0;orthogonalLoop=1;jettySize=auto;html=1;" edge="1" parent="1" source="cKec8RYuwjk50nraUcjY-60" target="cKec8RYuwjk50nraUcjY-63">
          <mxGeometry relative="1" as="geometry" />
        </mxCell>
        <mxCell id="cKec8RYuwjk50nraUcjY-60" value="Q22" style="ellipse;whiteSpace=wrap;html=1;aspect=fixed;" vertex="1" parent="1">
          <mxGeometry x="740" y="1050" width="80" height="80" as="geometry" />
        </mxCell>
        <mxCell id="cKec8RYuwjk50nraUcjY-66" value="T" style="edgeStyle=orthogonalEdgeStyle;rounded=0;orthogonalLoop=1;jettySize=auto;html=1;" edge="1" parent="1" source="cKec8RYuwjk50nraUcjY-63" target="cKec8RYuwjk50nraUcjY-65">
          <mxGeometry relative="1" as="geometry" />
        </mxCell>
        <mxCell id="cKec8RYuwjk50nraUcjY-63" value="Q23" style="ellipse;whiteSpace=wrap;html=1;aspect=fixed;" vertex="1" parent="1">
          <mxGeometry x="870" y="1050" width="80" height="80" as="geometry" />
        </mxCell>
        <mxCell id="cKec8RYuwjk50nraUcjY-65" value="Q24" style="ellipse;whiteSpace=wrap;html=1;aspect=fixed;strokeWidth=4;" vertex="1" parent="1">
          <mxGeometry x="1000" y="1050" width="80" height="80" as="geometry" />
        </mxCell>
        <mxCell id="cKec8RYuwjk50nraUcjY-70" value="O" style="edgeStyle=orthogonalEdgeStyle;rounded=0;orthogonalLoop=1;jettySize=auto;html=1;" edge="1" parent="1" source="cKec8RYuwjk50nraUcjY-67" target="cKec8RYuwjk50nraUcjY-69">
          <mxGeometry relative="1" as="geometry" />
        </mxCell>
        <mxCell id="cKec8RYuwjk50nraUcjY-95" value="E" style="edgeStyle=orthogonalEdgeStyle;rounded=0;orthogonalLoop=1;jettySize=auto;html=1;" edge="1" parent="1" source="cKec8RYuwjk50nraUcjY-67" target="cKec8RYuwjk50nraUcjY-94">
          <mxGeometry relative="1" as="geometry" />
        </mxCell>
        <mxCell id="cKec8RYuwjk50nraUcjY-67" value="Q25" style="ellipse;whiteSpace=wrap;html=1;aspect=fixed;" vertex="1" parent="1">
          <mxGeometry x="480" y="1180" width="80" height="80" as="geometry" />
        </mxCell>
        <mxCell id="cKec8RYuwjk50nraUcjY-72" value="O" style="edgeStyle=orthogonalEdgeStyle;rounded=0;orthogonalLoop=1;jettySize=auto;html=1;" edge="1" parent="1" source="cKec8RYuwjk50nraUcjY-69" target="cKec8RYuwjk50nraUcjY-71">
          <mxGeometry relative="1" as="geometry" />
        </mxCell>
        <mxCell id="cKec8RYuwjk50nraUcjY-69" value="Q26" style="ellipse;whiteSpace=wrap;html=1;aspect=fixed;" vertex="1" parent="1">
          <mxGeometry x="610" y="1180" width="80" height="80" as="geometry" />
        </mxCell>
        <mxCell id="cKec8RYuwjk50nraUcjY-74" value="L" style="edgeStyle=orthogonalEdgeStyle;rounded=0;orthogonalLoop=1;jettySize=auto;html=1;" edge="1" parent="1" source="cKec8RYuwjk50nraUcjY-71" target="cKec8RYuwjk50nraUcjY-73">
          <mxGeometry relative="1" as="geometry" />
        </mxCell>
        <mxCell id="cKec8RYuwjk50nraUcjY-71" value="Q27" style="ellipse;whiteSpace=wrap;html=1;aspect=fixed;" vertex="1" parent="1">
          <mxGeometry x="740" y="1180" width="80" height="80" as="geometry" />
        </mxCell>
        <mxCell id="cKec8RYuwjk50nraUcjY-76" value="E" style="edgeStyle=orthogonalEdgeStyle;rounded=0;orthogonalLoop=1;jettySize=auto;html=1;" edge="1" parent="1" source="cKec8RYuwjk50nraUcjY-73" target="cKec8RYuwjk50nraUcjY-75">
          <mxGeometry relative="1" as="geometry" />
        </mxCell>
        <mxCell id="cKec8RYuwjk50nraUcjY-73" value="Q28" style="ellipse;whiteSpace=wrap;html=1;aspect=fixed;" vertex="1" parent="1">
          <mxGeometry x="870" y="1180" width="80" height="80" as="geometry" />
        </mxCell>
        <mxCell id="cKec8RYuwjk50nraUcjY-78" value="A" style="edgeStyle=orthogonalEdgeStyle;rounded=0;orthogonalLoop=1;jettySize=auto;html=1;" edge="1" parent="1" source="cKec8RYuwjk50nraUcjY-75" target="cKec8RYuwjk50nraUcjY-77">
          <mxGeometry relative="1" as="geometry" />
        </mxCell>
        <mxCell id="cKec8RYuwjk50nraUcjY-75" value="Q29" style="ellipse;whiteSpace=wrap;html=1;aspect=fixed;" vertex="1" parent="1">
          <mxGeometry x="1000" y="1180" width="80" height="80" as="geometry" />
        </mxCell>
        <mxCell id="cKec8RYuwjk50nraUcjY-80" value="N" style="edgeStyle=orthogonalEdgeStyle;rounded=0;orthogonalLoop=1;jettySize=auto;html=1;" edge="1" parent="1" source="cKec8RYuwjk50nraUcjY-77" target="cKec8RYuwjk50nraUcjY-79">
          <mxGeometry relative="1" as="geometry" />
        </mxCell>
        <mxCell id="cKec8RYuwjk50nraUcjY-77" value="Q30" style="ellipse;whiteSpace=wrap;html=1;aspect=fixed;" vertex="1" parent="1">
          <mxGeometry x="1130" y="1180" width="80" height="80" as="geometry" />
        </mxCell>
        <mxCell id="cKec8RYuwjk50nraUcjY-79" value="Q31" style="ellipse;whiteSpace=wrap;html=1;aspect=fixed;strokeWidth=4;" vertex="1" parent="1">
          <mxGeometry x="1260" y="1180" width="80" height="80" as="geometry" />
        </mxCell>
        <mxCell id="cKec8RYuwjk50nraUcjY-85" value="E" style="edgeStyle=orthogonalEdgeStyle;rounded=0;orthogonalLoop=1;jettySize=auto;html=1;" edge="1" parent="1" source="cKec8RYuwjk50nraUcjY-82" target="cKec8RYuwjk50nraUcjY-84">
          <mxGeometry relative="1" as="geometry" />
        </mxCell>
        <mxCell id="cKec8RYuwjk50nraUcjY-82" value="Q32" style="ellipse;whiteSpace=wrap;html=1;aspect=fixed;" vertex="1" parent="1">
          <mxGeometry x="740" y="400" width="80" height="80" as="geometry" />
        </mxCell>
        <mxCell id="cKec8RYuwjk50nraUcjY-87" value="D" style="edgeStyle=orthogonalEdgeStyle;rounded=0;orthogonalLoop=1;jettySize=auto;html=1;" edge="1" parent="1" source="cKec8RYuwjk50nraUcjY-84" target="cKec8RYuwjk50nraUcjY-86">
          <mxGeometry relative="1" as="geometry" />
        </mxCell>
        <mxCell id="cKec8RYuwjk50nraUcjY-84" value="Q33" style="ellipse;whiteSpace=wrap;html=1;aspect=fixed;" vertex="1" parent="1">
          <mxGeometry x="870" y="400" width="80" height="80" as="geometry" />
        </mxCell>
        <mxCell id="cKec8RYuwjk50nraUcjY-89" value="U" style="edgeStyle=orthogonalEdgeStyle;rounded=0;orthogonalLoop=1;jettySize=auto;html=1;" edge="1" parent="1" source="cKec8RYuwjk50nraUcjY-86" target="cKec8RYuwjk50nraUcjY-88">
          <mxGeometry relative="1" as="geometry" />
        </mxCell>
        <mxCell id="cKec8RYuwjk50nraUcjY-86" value="Q34" style="ellipse;whiteSpace=wrap;html=1;aspect=fixed;" vertex="1" parent="1">
          <mxGeometry x="1000" y="400" width="80" height="80" as="geometry" />
        </mxCell>
        <mxCell id="cKec8RYuwjk50nraUcjY-91" value="R" style="edgeStyle=orthogonalEdgeStyle;rounded=0;orthogonalLoop=1;jettySize=auto;html=1;" edge="1" parent="1" source="cKec8RYuwjk50nraUcjY-88" target="cKec8RYuwjk50nraUcjY-90">
          <mxGeometry relative="1" as="geometry" />
        </mxCell>
        <mxCell id="cKec8RYuwjk50nraUcjY-88" value="Q35" style="ellipse;whiteSpace=wrap;html=1;aspect=fixed;" vertex="1" parent="1">
          <mxGeometry x="1130" y="400" width="80" height="80" as="geometry" />
        </mxCell>
        <mxCell id="cKec8RYuwjk50nraUcjY-93" value="E" style="edgeStyle=orthogonalEdgeStyle;rounded=0;orthogonalLoop=1;jettySize=auto;html=1;" edge="1" parent="1" source="cKec8RYuwjk50nraUcjY-90" target="cKec8RYuwjk50nraUcjY-92">
          <mxGeometry relative="1" as="geometry" />
        </mxCell>
        <mxCell id="cKec8RYuwjk50nraUcjY-90" value="Q36" style="ellipse;whiteSpace=wrap;html=1;aspect=fixed;" vertex="1" parent="1">
          <mxGeometry x="1260" y="400" width="80" height="80" as="geometry" />
        </mxCell>
        <mxCell id="cKec8RYuwjk50nraUcjY-92" value="Q37" style="ellipse;whiteSpace=wrap;html=1;aspect=fixed;strokeWidth=4;" vertex="1" parent="1">
          <mxGeometry x="1390" y="400" width="80" height="80" as="geometry" />
        </mxCell>
        <mxCell id="cKec8RYuwjk50nraUcjY-97" value="G" style="edgeStyle=orthogonalEdgeStyle;rounded=0;orthogonalLoop=1;jettySize=auto;html=1;" edge="1" parent="1" source="cKec8RYuwjk50nraUcjY-94" target="cKec8RYuwjk50nraUcjY-96">
          <mxGeometry relative="1" as="geometry" />
        </mxCell>
        <mxCell id="cKec8RYuwjk50nraUcjY-94" value="Q38" style="ellipse;whiteSpace=wrap;html=1;aspect=fixed;" vertex="1" parent="1">
          <mxGeometry x="480" y="1310" width="80" height="80" as="geometry" />
        </mxCell>
        <mxCell id="cKec8RYuwjk50nraUcjY-99" value="I" style="edgeStyle=orthogonalEdgeStyle;rounded=0;orthogonalLoop=1;jettySize=auto;html=1;" edge="1" parent="1" source="cKec8RYuwjk50nraUcjY-96" target="cKec8RYuwjk50nraUcjY-98">
          <mxGeometry relative="1" as="geometry" />
        </mxCell>
        <mxCell id="cKec8RYuwjk50nraUcjY-96" value="Q39" style="ellipse;whiteSpace=wrap;html=1;aspect=fixed;" vertex="1" parent="1">
          <mxGeometry x="610" y="1310" width="80" height="80" as="geometry" />
        </mxCell>
        <mxCell id="cKec8RYuwjk50nraUcjY-101" value="N" style="edgeStyle=orthogonalEdgeStyle;rounded=0;orthogonalLoop=1;jettySize=auto;html=1;" edge="1" parent="1" source="cKec8RYuwjk50nraUcjY-98" target="cKec8RYuwjk50nraUcjY-100">
          <mxGeometry relative="1" as="geometry" />
        </mxCell>
        <mxCell id="cKec8RYuwjk50nraUcjY-98" value="Q40" style="ellipse;whiteSpace=wrap;html=1;aspect=fixed;" vertex="1" parent="1">
          <mxGeometry x="740" y="1310" width="80" height="80" as="geometry" />
        </mxCell>
        <mxCell id="cKec8RYuwjk50nraUcjY-100" value="Q41" style="ellipse;whiteSpace=wrap;html=1;aspect=fixed;strokeWidth=4;" vertex="1" parent="1">
          <mxGeometry x="870" y="1310" width="80" height="80" as="geometry" />
        </mxCell>
        <mxCell id="cKec8RYuwjk50nraUcjY-105" value="N" style="edgeStyle=orthogonalEdgeStyle;rounded=0;orthogonalLoop=1;jettySize=auto;html=1;" edge="1" parent="1" source="cKec8RYuwjk50nraUcjY-102" target="cKec8RYuwjk50nraUcjY-104">
          <mxGeometry relative="1" as="geometry" />
        </mxCell>
        <mxCell id="cKec8RYuwjk50nraUcjY-109" value="L" style="edgeStyle=orthogonalEdgeStyle;rounded=0;orthogonalLoop=1;jettySize=auto;html=1;" edge="1" parent="1" source="cKec8RYuwjk50nraUcjY-102" target="cKec8RYuwjk50nraUcjY-108">
          <mxGeometry relative="1" as="geometry" />
        </mxCell>
        <mxCell id="cKec8RYuwjk50nraUcjY-102" value="Q42" style="ellipse;whiteSpace=wrap;html=1;aspect=fixed;" vertex="1" parent="1">
          <mxGeometry x="480" y="1440" width="80" height="80" as="geometry" />
        </mxCell>
        <mxCell id="cKec8RYuwjk50nraUcjY-107" value="D" style="edgeStyle=orthogonalEdgeStyle;rounded=0;orthogonalLoop=1;jettySize=auto;html=1;" edge="1" parent="1" source="cKec8RYuwjk50nraUcjY-104" target="cKec8RYuwjk50nraUcjY-106">
          <mxGeometry relative="1" as="geometry" />
        </mxCell>
        <mxCell id="cKec8RYuwjk50nraUcjY-104" value="Q43" style="ellipse;whiteSpace=wrap;html=1;aspect=fixed;" vertex="1" parent="1">
          <mxGeometry x="610" y="1440" width="80" height="80" as="geometry" />
        </mxCell>
        <mxCell id="cKec8RYuwjk50nraUcjY-106" value="Q44" style="ellipse;whiteSpace=wrap;html=1;aspect=fixed;strokeWidth=4;" vertex="1" parent="1">
          <mxGeometry x="740" y="1440" width="80" height="80" as="geometry" />
        </mxCell>
        <mxCell id="cKec8RYuwjk50nraUcjY-111" value="S" style="edgeStyle=orthogonalEdgeStyle;rounded=0;orthogonalLoop=1;jettySize=auto;html=1;" edge="1" parent="1" source="cKec8RYuwjk50nraUcjY-108" target="cKec8RYuwjk50nraUcjY-110">
          <mxGeometry relative="1" as="geometry" />
        </mxCell>
        <mxCell id="cKec8RYuwjk50nraUcjY-108" value="Q45" style="ellipse;whiteSpace=wrap;html=1;aspect=fixed;" vertex="1" parent="1">
          <mxGeometry x="480" y="1570" width="80" height="80" as="geometry" />
        </mxCell>
        <mxCell id="cKec8RYuwjk50nraUcjY-113" value="E" style="edgeStyle=orthogonalEdgeStyle;rounded=0;orthogonalLoop=1;jettySize=auto;html=1;" edge="1" parent="1" source="cKec8RYuwjk50nraUcjY-110" target="cKec8RYuwjk50nraUcjY-112">
          <mxGeometry relative="1" as="geometry" />
        </mxCell>
        <mxCell id="cKec8RYuwjk50nraUcjY-110" value="Q46" style="ellipse;whiteSpace=wrap;html=1;aspect=fixed;" vertex="1" parent="1">
          <mxGeometry x="610" y="1570" width="80" height="80" as="geometry" />
        </mxCell>
        <mxCell id="cKec8RYuwjk50nraUcjY-112" value="Q47" style="ellipse;whiteSpace=wrap;html=1;aspect=fixed;strokeWidth=4;" vertex="1" parent="1">
          <mxGeometry x="740" y="1570" width="80" height="80" as="geometry" />
        </mxCell>
        <mxCell id="cKec8RYuwjk50nraUcjY-117" value="H" style="edgeStyle=orthogonalEdgeStyle;rounded=0;orthogonalLoop=1;jettySize=auto;html=1;" edge="1" parent="1" source="cKec8RYuwjk50nraUcjY-114" target="cKec8RYuwjk50nraUcjY-116">
          <mxGeometry relative="1" as="geometry" />
        </mxCell>
        <mxCell id="cKec8RYuwjk50nraUcjY-114" value="Q48" style="ellipse;whiteSpace=wrap;html=1;aspect=fixed;" vertex="1" parent="1">
          <mxGeometry x="480" y="1700" width="80" height="80" as="geometry" />
        </mxCell>
        <mxCell id="cKec8RYuwjk50nraUcjY-119" value="E" style="edgeStyle=orthogonalEdgeStyle;rounded=0;orthogonalLoop=1;jettySize=auto;html=1;" edge="1" parent="1" source="cKec8RYuwjk50nraUcjY-116" target="cKec8RYuwjk50nraUcjY-118">
          <mxGeometry relative="1" as="geometry" />
        </mxCell>
        <mxCell id="cKec8RYuwjk50nraUcjY-116" value="Q49" style="ellipse;whiteSpace=wrap;html=1;aspect=fixed;" vertex="1" parent="1">
          <mxGeometry x="610" y="1700" width="80" height="80" as="geometry" />
        </mxCell>
        <mxCell id="cKec8RYuwjk50nraUcjY-121" value="N" style="edgeStyle=orthogonalEdgeStyle;rounded=0;orthogonalLoop=1;jettySize=auto;html=1;" edge="1" parent="1" source="cKec8RYuwjk50nraUcjY-118" target="cKec8RYuwjk50nraUcjY-120">
          <mxGeometry relative="1" as="geometry" />
        </mxCell>
        <mxCell id="cKec8RYuwjk50nraUcjY-118" value="Q50" style="ellipse;whiteSpace=wrap;html=1;aspect=fixed;" vertex="1" parent="1">
          <mxGeometry x="740" y="1700" width="80" height="80" as="geometry" />
        </mxCell>
        <mxCell id="cKec8RYuwjk50nraUcjY-120" value="Q51" style="ellipse;whiteSpace=wrap;html=1;aspect=fixed;strokeWidth=4;" vertex="1" parent="1">
          <mxGeometry x="870" y="1700" width="80" height="80" as="geometry" />
        </mxCell>
        <mxCell id="cKec8RYuwjk50nraUcjY-125" value="H" style="edgeStyle=orthogonalEdgeStyle;rounded=0;orthogonalLoop=1;jettySize=auto;html=1;" edge="1" parent="1" source="cKec8RYuwjk50nraUcjY-122" target="cKec8RYuwjk50nraUcjY-124">
          <mxGeometry relative="1" as="geometry" />
        </mxCell>
        <mxCell id="cKec8RYuwjk50nraUcjY-122" value="Q52" style="ellipse;whiteSpace=wrap;html=1;aspect=fixed;" vertex="1" parent="1">
          <mxGeometry x="480" y="1830" width="80" height="80" as="geometry" />
        </mxCell>
        <mxCell id="cKec8RYuwjk50nraUcjY-127" value="I" style="edgeStyle=orthogonalEdgeStyle;rounded=0;orthogonalLoop=1;jettySize=auto;html=1;" edge="1" parent="1" source="cKec8RYuwjk50nraUcjY-124" target="cKec8RYuwjk50nraUcjY-126">
          <mxGeometry relative="1" as="geometry" />
        </mxCell>
        <mxCell id="cKec8RYuwjk50nraUcjY-124" value="Q53" style="ellipse;whiteSpace=wrap;html=1;aspect=fixed;" vertex="1" parent="1">
          <mxGeometry x="610" y="1830" width="80" height="80" as="geometry" />
        </mxCell>
        <mxCell id="cKec8RYuwjk50nraUcjY-129" value="L" style="edgeStyle=orthogonalEdgeStyle;rounded=0;orthogonalLoop=1;jettySize=auto;html=1;" edge="1" parent="1" source="cKec8RYuwjk50nraUcjY-126" target="cKec8RYuwjk50nraUcjY-128">
          <mxGeometry relative="1" as="geometry" />
        </mxCell>
        <mxCell id="cKec8RYuwjk50nraUcjY-126" value="Q54" style="ellipse;whiteSpace=wrap;html=1;aspect=fixed;" vertex="1" parent="1">
          <mxGeometry x="740" y="1830" width="80" height="80" as="geometry" />
        </mxCell>
        <mxCell id="cKec8RYuwjk50nraUcjY-131" value="E" style="edgeStyle=orthogonalEdgeStyle;rounded=0;orthogonalLoop=1;jettySize=auto;html=1;" edge="1" parent="1" source="cKec8RYuwjk50nraUcjY-128" target="cKec8RYuwjk50nraUcjY-130">
          <mxGeometry relative="1" as="geometry" />
        </mxCell>
        <mxCell id="cKec8RYuwjk50nraUcjY-128" value="Q55" style="ellipse;whiteSpace=wrap;html=1;aspect=fixed;" vertex="1" parent="1">
          <mxGeometry x="870" y="1830" width="80" height="80" as="geometry" />
        </mxCell>
        <mxCell id="cKec8RYuwjk50nraUcjY-130" value="Q56" style="ellipse;whiteSpace=wrap;html=1;aspect=fixed;strokeWidth=4;" vertex="1" parent="1">
          <mxGeometry x="1000" y="1830" width="80" height="80" as="geometry" />
        </mxCell>
        <mxCell id="cKec8RYuwjk50nraUcjY-135" value="O" style="edgeStyle=orthogonalEdgeStyle;rounded=0;orthogonalLoop=1;jettySize=auto;html=1;" edge="1" parent="1" source="cKec8RYuwjk50nraUcjY-132" target="cKec8RYuwjk50nraUcjY-134">
          <mxGeometry relative="1" as="geometry" />
        </mxCell>
        <mxCell id="cKec8RYuwjk50nraUcjY-132" value="Q57" style="ellipse;whiteSpace=wrap;html=1;aspect=fixed;" vertex="1" parent="1">
          <mxGeometry x="480" y="1960" width="80" height="80" as="geometry" />
        </mxCell>
        <mxCell id="cKec8RYuwjk50nraUcjY-134" value="Q58" style="ellipse;whiteSpace=wrap;html=1;aspect=fixed;strokeWidth=4;" vertex="1" parent="1">
          <mxGeometry x="610" y="1960" width="80" height="80" as="geometry" />
        </mxCell>
        <mxCell id="cKec8RYuwjk50nraUcjY-140" value="O" style="edgeStyle=orthogonalEdgeStyle;rounded=0;orthogonalLoop=1;jettySize=auto;html=1;" edge="1" parent="1" source="cKec8RYuwjk50nraUcjY-136" target="cKec8RYuwjk50nraUcjY-139">
          <mxGeometry relative="1" as="geometry" />
        </mxCell>
        <mxCell id="cKec8RYuwjk50nraUcjY-136" value="Q59" style="ellipse;whiteSpace=wrap;html=1;aspect=fixed;" vertex="1" parent="1">
          <mxGeometry x="480" y="2090" width="80" height="80" as="geometry" />
        </mxCell>
        <mxCell id="cKec8RYuwjk50nraUcjY-142" value="T" style="edgeStyle=orthogonalEdgeStyle;rounded=0;orthogonalLoop=1;jettySize=auto;html=1;" edge="1" parent="1" source="cKec8RYuwjk50nraUcjY-139" target="cKec8RYuwjk50nraUcjY-141">
          <mxGeometry relative="1" as="geometry" />
        </mxCell>
        <mxCell id="cKec8RYuwjk50nraUcjY-139" value="Q60" style="ellipse;whiteSpace=wrap;html=1;aspect=fixed;" vertex="1" parent="1">
          <mxGeometry x="610" y="2090" width="80" height="80" as="geometry" />
        </mxCell>
        <mxCell id="cKec8RYuwjk50nraUcjY-141" value="Q61" style="ellipse;whiteSpace=wrap;html=1;aspect=fixed;strokeWidth=4;" vertex="1" parent="1">
          <mxGeometry x="740" y="2090" width="80" height="80" as="geometry" />
        </mxCell>
        <mxCell id="cKec8RYuwjk50nraUcjY-143" value="Q62" style="ellipse;whiteSpace=wrap;html=1;aspect=fixed;" vertex="1" parent="1">
          <mxGeometry x="240" y="410" width="80" height="80" as="geometry" />
        </mxCell>
        <mxCell id="cKec8RYuwjk50nraUcjY-144" value="{" style="endArrow=classic;html=1;rounded=0;exitX=0;exitY=0;exitDx=0;exitDy=0;" edge="1" parent="1" source="cKec8RYuwjk50nraUcjY-1" target="cKec8RYuwjk50nraUcjY-143">
          <mxGeometry width="50" height="50" relative="1" as="geometry">
            <mxPoint x="270" y="530" as="sourcePoint" />
            <mxPoint x="320" y="480" as="targetPoint" />
          </mxGeometry>
        </mxCell>
        <mxCell id="cKec8RYuwjk50nraUcjY-145" value="}" style="endArrow=classic;html=1;rounded=0;" edge="1" parent="1" target="cKec8RYuwjk50nraUcjY-1">
          <mxGeometry width="50" height="50" relative="1" as="geometry">
            <mxPoint x="280" y="490" as="sourcePoint" />
            <mxPoint x="320" y="480" as="targetPoint" />
          </mxGeometry>
        </mxCell>
        <mxCell id="cKec8RYuwjk50nraUcjY-146" value="Î£ - }" style="endArrow=classic;html=1;rounded=0;entryX=1;entryY=0;entryDx=0;entryDy=0;exitX=0;exitY=0;exitDx=0;exitDy=0;" edge="1" parent="1" source="cKec8RYuwjk50nraUcjY-143" target="cKec8RYuwjk50nraUcjY-143">
          <mxGeometry width="50" height="50" relative="1" as="geometry">
            <mxPoint x="220" y="420" as="sourcePoint" />
            <mxPoint x="296.5642712474611" y="399.99572875253875" as="targetPoint" />
            <Array as="points">
              <mxPoint x="250" y="390" />
              <mxPoint x="308" y="390" />
            </Array>
          </mxGeometry>
        </mxCell>
        <mxCell id="cKec8RYuwjk50nraUcjY-147" value="Q63" style="ellipse;whiteSpace=wrap;html=1;aspect=fixed;strokeWidth=4;" vertex="1" parent="1">
          <mxGeometry x="100" y="530" width="80" height="80" as="geometry" />
        </mxCell>
        <mxCell id="cKec8RYuwjk50nraUcjY-150" value="[a..z_0..9]" style="endArrow=classic;html=1;rounded=0;entryX=1;entryY=0;entryDx=0;entryDy=0;exitX=0;exitY=0;exitDx=0;exitDy=0;" edge="1" parent="1" source="cKec8RYuwjk50nraUcjY-147" target="cKec8RYuwjk50nraUcjY-147">
          <mxGeometry width="50" height="50" relative="1" as="geometry">
            <mxPoint x="100" y="520" as="sourcePoint" />
            <mxPoint x="150" y="470" as="targetPoint" />
            <Array as="points">
              <mxPoint x="110" y="500" />
              <mxPoint x="170" y="500" />
            </Array>
          </mxGeometry>
        </mxCell>
        <mxCell id="cKec8RYuwjk50nraUcjY-151" value="Q64" style="ellipse;whiteSpace=wrap;html=1;aspect=fixed;strokeWidth=4;" vertex="1" parent="1">
          <mxGeometry x="100" y="660" width="80" height="80" as="geometry" />
        </mxCell>
        <mxCell id="cKec8RYuwjk50nraUcjY-152" value="[0..9]" style="endArrow=classic;html=1;rounded=0;exitX=0;exitY=0.5;exitDx=0;exitDy=0;" edge="1" parent="1" source="cKec8RYuwjk50nraUcjY-1" target="cKec8RYuwjk50nraUcjY-151">
          <mxGeometry width="50" height="50" relative="1" as="geometry">
            <mxPoint x="180" y="610" as="sourcePoint" />
            <mxPoint x="230" y="560" as="targetPoint" />
          </mxGeometry>
        </mxCell>
        <mxCell id="cKec8RYuwjk50nraUcjY-153" value="[0..9]" style="endArrow=classic;html=1;rounded=0;exitX=0;exitY=1;exitDx=0;exitDy=0;entryX=1;entryY=1;entryDx=0;entryDy=0;" edge="1" parent="1" source="cKec8RYuwjk50nraUcjY-151" target="cKec8RYuwjk50nraUcjY-151">
          <mxGeometry width="50" height="50" relative="1" as="geometry">
            <mxPoint x="90" y="640" as="sourcePoint" />
            <mxPoint x="140" y="590" as="targetPoint" />
            <Array as="points">
              <mxPoint x="120" y="760" />
              <mxPoint x="160" y="760" />
            </Array>
          </mxGeometry>
        </mxCell>
        <mxCell id="cKec8RYuwjk50nraUcjY-154" value="Q65" style="ellipse;whiteSpace=wrap;html=1;aspect=fixed;strokeWidth=4;" vertex="1" parent="1">
          <mxGeometry x="-40" y="920" width="80" height="80" as="geometry" />
        </mxCell>
        <mxCell id="cKec8RYuwjk50nraUcjY-155" value="Q66" style="ellipse;whiteSpace=wrap;html=1;aspect=fixed;strokeWidth=4;" vertex="1" parent="1">
          <mxGeometry x="180" y="920" width="80" height="80" as="geometry" />
        </mxCell>
        <mxCell id="cKec8RYuwjk50nraUcjY-156" value="Q67" style="ellipse;whiteSpace=wrap;html=1;aspect=fixed;strokeWidth=4;" vertex="1" parent="1">
          <mxGeometry x="-40" y="1050" width="80" height="80" as="geometry" />
        </mxCell>
        <mxCell id="cKec8RYuwjk50nraUcjY-157" value="Q68" style="ellipse;whiteSpace=wrap;html=1;aspect=fixed;strokeWidth=4;" vertex="1" parent="1">
          <mxGeometry x="180" y="1050" width="80" height="80" as="geometry" />
        </mxCell>
        <mxCell id="cKec8RYuwjk50nraUcjY-158" value="Q69" style="ellipse;whiteSpace=wrap;html=1;aspect=fixed;strokeWidth=4;" vertex="1" parent="1">
          <mxGeometry x="-40" y="1180" width="80" height="80" as="geometry" />
        </mxCell>
        <mxCell id="cKec8RYuwjk50nraUcjY-159" value="Q70" style="ellipse;whiteSpace=wrap;html=1;aspect=fixed;strokeWidth=4;" vertex="1" parent="1">
          <mxGeometry x="180" y="1180" width="80" height="80" as="geometry" />
        </mxCell>
        <mxCell id="cKec8RYuwjk50nraUcjY-160" value="" style="endArrow=none;html=1;rounded=0;exitX=0;exitY=0.5;exitDx=0;exitDy=0;endFill=0;" edge="1" parent="1" source="cKec8RYuwjk50nraUcjY-1">
          <mxGeometry width="50" height="50" relative="1" as="geometry">
            <mxPoint x="150" y="990" as="sourcePoint" />
            <mxPoint x="100" y="920" as="targetPoint" />
          </mxGeometry>
        </mxCell>
        <mxCell id="cKec8RYuwjk50nraUcjY-161" value="," style="endArrow=classic;html=1;rounded=0;entryX=1;entryY=0.5;entryDx=0;entryDy=0;" edge="1" parent="1" target="cKec8RYuwjk50nraUcjY-154">
          <mxGeometry width="50" height="50" relative="1" as="geometry">
            <mxPoint x="100" y="920" as="sourcePoint" />
            <mxPoint x="120" y="940" as="targetPoint" />
            <Array as="points">
              <mxPoint x="100" y="960" />
            </Array>
          </mxGeometry>
        </mxCell>
        <mxCell id="cKec8RYuwjk50nraUcjY-162" value="." style="endArrow=classic;html=1;rounded=0;entryX=0;entryY=0.5;entryDx=0;entryDy=0;" edge="1" parent="1" target="cKec8RYuwjk50nraUcjY-155">
          <mxGeometry width="50" height="50" relative="1" as="geometry">
            <mxPoint x="100" y="920" as="sourcePoint" />
            <mxPoint x="120" y="940" as="targetPoint" />
            <Array as="points">
              <mxPoint x="100" y="960" />
            </Array>
          </mxGeometry>
        </mxCell>
        <mxCell id="cKec8RYuwjk50nraUcjY-163" value="+" style="endArrow=classic;html=1;rounded=0;entryX=1;entryY=0.5;entryDx=0;entryDy=0;" edge="1" parent="1" target="cKec8RYuwjk50nraUcjY-156">
          <mxGeometry x="0.7391" width="50" height="50" relative="1" as="geometry">
            <mxPoint x="100" y="920" as="sourcePoint" />
            <mxPoint x="120" y="940" as="targetPoint" />
            <Array as="points">
              <mxPoint x="100" y="1090" />
            </Array>
            <mxPoint as="offset" />
          </mxGeometry>
        </mxCell>
        <mxCell id="cKec8RYuwjk50nraUcjY-164" value=";" style="endArrow=classic;html=1;rounded=0;entryX=0;entryY=0.5;entryDx=0;entryDy=0;" edge="1" parent="1" target="cKec8RYuwjk50nraUcjY-157">
          <mxGeometry x="0.68" width="50" height="50" relative="1" as="geometry">
            <mxPoint x="100" y="920" as="sourcePoint" />
            <mxPoint x="120" y="940" as="targetPoint" />
            <Array as="points">
              <mxPoint x="100" y="1090" />
            </Array>
            <mxPoint as="offset" />
          </mxGeometry>
        </mxCell>
        <mxCell id="cKec8RYuwjk50nraUcjY-166" value="*" style="endArrow=classic;html=1;rounded=0;entryX=1;entryY=0.5;entryDx=0;entryDy=0;" edge="1" parent="1" target="cKec8RYuwjk50nraUcjY-158">
          <mxGeometry x="0.8333" width="50" height="50" relative="1" as="geometry">
            <mxPoint x="100" y="920" as="sourcePoint" />
            <mxPoint x="120" y="1090" as="targetPoint" />
            <Array as="points">
              <mxPoint x="100" y="1220" />
            </Array>
            <mxPoint as="offset" />
          </mxGeometry>
        </mxCell>
        <mxCell id="cKec8RYuwjk50nraUcjY-167" value="(" style="endArrow=classic;html=1;rounded=0;entryX=0;entryY=0.5;entryDx=0;entryDy=0;" edge="1" parent="1" target="cKec8RYuwjk50nraUcjY-159">
          <mxGeometry x="0.7895" width="50" height="50" relative="1" as="geometry">
            <mxPoint x="100" y="920" as="sourcePoint" />
            <mxPoint x="120" y="1090" as="targetPoint" />
            <Array as="points">
              <mxPoint x="100" y="1220" />
            </Array>
            <mxPoint as="offset" />
          </mxGeometry>
        </mxCell>
        <mxCell id="cKec8RYuwjk50nraUcjY-173" value="" style="edgeStyle=orthogonalEdgeStyle;rounded=0;orthogonalLoop=1;jettySize=auto;html=1;" edge="1" parent="1" source="cKec8RYuwjk50nraUcjY-168" target="cKec8RYuwjk50nraUcjY-172">
          <mxGeometry relative="1" as="geometry" />
        </mxCell>
        <mxCell id="cKec8RYuwjk50nraUcjY-168" value="Q71" style="ellipse;whiteSpace=wrap;html=1;aspect=fixed;strokeWidth=4;" vertex="1" parent="1">
          <mxGeometry x="-40" y="1310" width="80" height="80" as="geometry" />
        </mxCell>
        <mxCell id="cKec8RYuwjk50nraUcjY-169" value="Q72" style="ellipse;whiteSpace=wrap;html=1;aspect=fixed;strokeWidth=4;" vertex="1" parent="1">
          <mxGeometry x="180" y="1310" width="80" height="80" as="geometry" />
        </mxCell>
        <mxCell id="cKec8RYuwjk50nraUcjY-170" value=":" style="endArrow=classic;html=1;rounded=0;entryX=1;entryY=0.5;entryDx=0;entryDy=0;" edge="1" parent="1" target="cKec8RYuwjk50nraUcjY-168">
          <mxGeometry x="0.6842" width="50" height="50" relative="1" as="geometry">
            <mxPoint x="100" y="1220" as="sourcePoint" />
            <mxPoint x="120" y="1310" as="targetPoint" />
            <Array as="points">
              <mxPoint x="100" y="1350" />
            </Array>
            <mxPoint as="offset" />
          </mxGeometry>
        </mxCell>
        <mxCell id="cKec8RYuwjk50nraUcjY-171" value=")" style="endArrow=classic;html=1;rounded=0;entryX=0;entryY=0.5;entryDx=0;entryDy=0;" edge="1" parent="1" target="cKec8RYuwjk50nraUcjY-169">
          <mxGeometry x="0.619" width="50" height="50" relative="1" as="geometry">
            <mxPoint x="100" y="1220" as="sourcePoint" />
            <mxPoint x="120" y="1310" as="targetPoint" />
            <Array as="points">
              <mxPoint x="100" y="1350" />
            </Array>
            <mxPoint as="offset" />
          </mxGeometry>
        </mxCell>
        <mxCell id="cKec8RYuwjk50nraUcjY-172" value="Q73" style="ellipse;whiteSpace=wrap;html=1;aspect=fixed;strokeWidth=4;" vertex="1" parent="1">
          <mxGeometry x="-170" y="1310" width="80" height="80" as="geometry" />
        </mxCell>
      </root>
    </mxGraphModel>
  </diagram>
</mxfile>
